<?xml version="1.0" encoding="UTF-8" standalone="no"?>
<!DOCTYPE svg PUBLIC "-//W3C//DTD SVG 1.1//EN" "http://www.w3.org/Graphics/SVG/1.1/DTD/svg11.dtd">
<svg width="100%" height="100%" viewBox="0 0 1682 1249" version="1.1" xmlns="http://www.w3.org/2000/svg" xmlns:xlink="http://www.w3.org/1999/xlink" xml:space="preserve" xmlns:serif="http://www.serif.com/" style="fill-rule:evenodd;clip-rule:evenodd;stroke-linejoin:round;stroke-miterlimit:2;">
    <g transform="matrix(1,0,0,1,-699,-1934.436836)">
        <g transform="matrix(1,0,0,1,-161,121)">
            <path d="M2526,2002C2230.003,2174.414 1972.953,2393.531 1855,2842C2072.668,2701.097 2239.614,2494.98 2395,2274C2268.614,2599.781 2070.905,2896.386 1553,3062C2354.985,3066.655 2610.645,2658.907 2526,2002" style="fill:url(#_Linear1);"/>
        </g>
        <g transform="matrix(1,0,0,1,-161,121)">
            <path d="M860,2386C1446.759,2476.983 1504.727,2719.404 1597,2952L1072,2542C1199.801,2738.461 1366.086,2883.114 1553,3000C1132.515,3024.833 914.477,2804.468 860,2386Z" style="fill:url(#_Linear2);"/>
        </g>
        <g transform="matrix(1,0,0,1,-2915,-16)">
            <g transform="matrix(1,0,0,1,2754,137)">
                <path d="M1293.541,2459.75C1261.946,2442.376 1230.195,2428.552 1199.031,2418.477C1193.36,2388.177 1190.396,2356.939 1190.396,2325.02C1190.396,2043.819 1420.487,1815.52 1703.896,1815.52C1937.643,1815.52 2135.122,1970.821 2197.152,2183.015C2175.065,2197.886 2152.987,2215.159 2131.157,2234.644C2089.525,2038.318 1915.049,1890.822 1706.396,1890.822C1466.755,1890.822 1272.198,2085.38 1272.198,2325.02C1272.198,2372.042 1279.689,2417.328 1293.541,2459.75Z" style="fill:url(#_Linear3);stroke:rgb(160,130,30);stroke-width:4.17px;"/>
            </g>
            <g transform="matrix(1,0,0,1,2754,137)">
                <path d="M2131.157,2234.644C2038.08,2317.722 1949.508,2440.999 1883.956,2589.647C1861.445,2640.694 1842.974,2691.728 1828.48,2741.79C1789.746,2753.133 1748.776,2759.218 1706.396,2759.218C1659.346,2759.218 1614.034,2751.718 1571.592,2737.85C1544.389,2689.268 1509.418,2641.22 1467.181,2596.211C1413.282,2538.773 1353.694,2492.827 1293.541,2459.75C1279.689,2417.328 1272.198,2372.042 1272.198,2325.02C1272.198,2085.38 1466.755,1890.822 1706.396,1890.822C1915.049,1890.822 2089.525,2038.318 2131.157,2234.644ZM1679.896,2564.065L1679.896,2594.6C1679.896,2601.913 1685.833,2607.85 1693.146,2607.85L1719.646,2607.85C1726.958,2607.85 1732.896,2601.913 1732.896,2594.6L1732.896,2568.517C1754.628,2567.737 1774.985,2563.748 1793.966,2556.548C1815.252,2548.474 1834.389,2536.572 1851.376,2520.843L1851.376,2318.571L1722.4,2318.571L1722.4,2370.791L1790.663,2370.791L1790.663,2496.936C1782.065,2503.856 1772.47,2508.942 1761.879,2512.193C1751.289,2515.443 1738.968,2517.069 1724.917,2517.069C1683.393,2517.069 1652.617,2501.392 1632.589,2470.04C1612.561,2438.687 1602.547,2390.399 1602.547,2325.177C1602.547,2261.004 1612.875,2212.926 1633.533,2180.945C1654.19,2148.963 1685.175,2132.972 1726.49,2132.972C1746.413,2132.972 1765.287,2136.799 1783.113,2144.454C1800.939,2152.108 1818.346,2164.01 1835.333,2180.158L1835.333,2115.041C1818.555,2103.716 1801.149,2095.275 1783.113,2089.718C1767.04,2084.765 1750.301,2082.019 1732.896,2081.48L1732.896,2055.441C1732.896,2048.128 1726.958,2042.191 1719.646,2042.191L1693.146,2042.191C1685.833,2042.191 1679.896,2048.128 1679.896,2055.441L1679.896,2086.304C1641.906,2094.887 1610.776,2114.689 1586.504,2145.712C1552.949,2188.599 1536.171,2248.421 1536.171,2325.177C1536.171,2402.144 1552.739,2461.965 1585.874,2504.643C1610.133,2535.888 1641.474,2555.695 1679.896,2564.065Z" style="fill:url(#_Linear4);stroke:rgb(160,130,30);stroke-width:4.17px;"/>
            </g>
            <g transform="matrix(1,0,0,1,2754,137)">
                <path d="M1828.48,2741.79C1820.442,2769.553 1813.628,2797.017 1808.026,2824.019C1774.396,2830.903 1739.568,2834.52 1703.896,2834.52C1672.694,2834.52 1642.139,2831.753 1612.466,2826.453C1601.785,2797.095 1588.123,2767.374 1571.592,2737.85C1614.034,2751.718 1659.346,2759.218 1706.396,2759.218C1748.776,2759.218 1789.746,2753.133 1828.48,2741.79Z" style="fill:url(#_Linear5);stroke:rgb(160,130,30);stroke-width:4.17px;"/>
            </g>
        </g>
    </g>
    <defs>
        <linearGradient id="_Linear1" x1="0" y1="0" x2="1" y2="0" gradientUnits="userSpaceOnUse" gradientTransform="matrix(-944.41509,983.039444,-983.039444,-944.41509,2541.41509,2079)"><stop offset="0" style="stop-color:rgb(70,207,231);stop-opacity:1"/><stop offset="0.56" style="stop-color:rgb(27,72,122);stop-opacity:1"/><stop offset="1" style="stop-color:rgb(9,13,74);stop-opacity:1"/></linearGradient>
        <linearGradient id="_Linear2" x1="0" y1="0" x2="1" y2="0" gradientUnits="userSpaceOnUse" gradientTransform="matrix(598,598.979831,-598.979831,598,809,2325.020169)"><stop offset="0" style="stop-color:rgb(214,232,66);stop-opacity:1"/><stop offset="1" style="stop-color:rgb(4,59,18);stop-opacity:1"/></linearGradient>
        <linearGradient id="_Linear3" x1="0" y1="0" x2="1" y2="0" gradientUnits="userSpaceOnUse" gradientTransform="matrix(-343.937008,-284.314961,284.314961,-343.937008,1753.937008,2480.314961)"><stop offset="0" style="stop-color:rgb(212,175,55);stop-opacity:1"/><stop offset="1" style="stop-color:rgb(154,120,8);stop-opacity:1"/></linearGradient>
        <linearGradient id="_Linear4" x1="0" y1="0" x2="1" y2="0" gradientUnits="userSpaceOnUse" gradientTransform="matrix(-359.937008,-311.314961,311.314961,-359.937008,1753.937008,2480.314961)"><stop offset="0" style="stop-color:rgb(212,175,55);stop-opacity:1"/><stop offset="0.52" style="stop-color:rgb(198,162,44);stop-opacity:1"/><stop offset="1" style="stop-color:rgb(154,120,8);stop-opacity:1"/></linearGradient>
        <linearGradient id="_Linear5" x1="0" y1="0" x2="1" y2="0" gradientUnits="userSpaceOnUse" gradientTransform="matrix(-343.937008,-284.314961,284.314961,-343.937008,1753.937008,2480.314961)"><stop offset="0" style="stop-color:rgb(212,175,55);stop-opacity:1"/><stop offset="1" style="stop-color:rgb(154,120,8);stop-opacity:1"/></linearGradient>
    </defs>
</svg>
